<?xml version="1.0" encoding="utf-8"?>
<!-- Generator: Adobe Illustrator 16.0.0, SVG Export Plug-In . SVG Version: 6.00 Build 0)  -->
<!DOCTYPE svg PUBLIC "-//W3C//DTD SVG 1.1//EN" "http://www.w3.org/Graphics/SVG/1.1/DTD/svg11.dtd">
<svg version="1.1" id="Layer_1" xmlns="http://www.w3.org/2000/svg" xmlns:xlink="http://www.w3.org/1999/xlink" x="0px" y="0px"
	 width="22.68px" height="56.69px" viewBox="0 0 22.68 56.69" enable-background="new 0 0 22.68 56.69" xml:space="preserve">
<g id="_x36__2_">
	<g>
		<polygon fill="#3F393A" points="18.589,49.563 11.481,45.459 4.419,49.563 5.313,51.8 11.524,55.386 17.694,51.8 		"/>
		<polygon fill="#2A2828" points="11.481,45.459 4.419,49.563 5.313,51.8 11.524,55.386 		"/>
	</g>
	<polygon fill="#645E5E" points="18.589,49.563 11.527,53.667 4.419,49.563 11.481,45.459 	"/>
	<g>
		<g>
			<polygon fill="#443C3D" points="13.122,15.133 9.781,15.133 10.47,49.367 11.452,49.934 12.434,49.367 			"/>
			<polygon fill="#2A2828" points="11.452,15.133 9.781,15.133 10.47,49.367 11.452,49.934 			"/>
			<polygon fill="#B8CCD1" points="13.122,15.133 11.452,16.098 9.781,15.133 11.452,14.169 			"/>
			<polygon fill="#B8CCD1" points="13.122,15.133 11.452,16.098 9.781,15.133 11.452,14.169 			"/>
		</g>
		<path fill="#B8CCD1" d="M13.648,15.058l-0.001,0.396c-0.001,0.318-0.211,0.637-0.63,0.881c-0.844,0.489-2.221,0.494-3.07,0.004
			c-0.425-0.245-0.636-0.567-0.635-0.891l0.001-0.396c-0.001,0.323,0.21,0.646,0.636,0.891c0.849,0.49,2.227,0.485,3.069-0.004
			C13.438,15.694,13.647,15.376,13.648,15.058L13.648,15.058z"/>
		<path opacity="0.8" fill="#B8CCD1" d="M13.648,15.058l-0.001,0.396c-0.001,0.318-0.211,0.637-0.63,0.881
			c-0.844,0.489-2.221,0.494-3.07,0.004c-0.425-0.245-0.636-0.567-0.635-0.891l0.001-0.396c-0.001,0.323,0.21,0.646,0.636,0.891
			c0.849,0.49,2.227,0.485,3.069-0.004C13.438,15.694,13.647,15.376,13.648,15.058L13.648,15.058z"/>
		<path fill="#B8CCD1" d="M13.009,14.165c-0.849-0.49-2.219-0.49-3.062,0c-0.843,0.489-0.847,1.287,0.002,1.777
			c0.849,0.49,2.227,0.485,3.07-0.004C13.862,15.448,13.857,14.654,13.009,14.165z"/>
		<path fill="#B8CCD1" d="M13.009,14.165c-0.849-0.49-2.219-0.49-3.062,0c-0.843,0.489-0.847,1.287,0.002,1.777
			c0.849,0.49,2.227,0.485,3.07-0.004C13.862,15.448,13.857,14.654,13.009,14.165z"/>
	</g>
	<g>
		<polygon fill="#FFF5CA" points="11.536,12.904 11.509,22.356 22.133,16.183 22.16,6.73 		"/>
		<polygon fill="#EFC880" points="11.536,12.904 11.509,22.356 0.815,16.183 0.842,6.73 		"/>
		<polygon fill="#FFFCEB" points="22.16,6.73 11.536,12.904 0.842,6.73 11.466,0.557 		"/>
	</g>
</g>
</svg>
