<?xml version="1.0" encoding="utf-8"?>
<!-- Generator: Adobe Illustrator 16.0.0, SVG Export Plug-In . SVG Version: 6.00 Build 0)  -->
<!DOCTYPE svg PUBLIC "-//W3C//DTD SVG 1.1//EN" "http://www.w3.org/Graphics/SVG/1.1/DTD/svg11.dtd">
<svg version="1.1" id="Layer_1" xmlns="http://www.w3.org/2000/svg" xmlns:xlink="http://www.w3.org/1999/xlink" x="0px" y="0px"
	 width="56.69px" height="51.02px" viewBox="0 0 56.69 51.02" enable-background="new 0 0 56.69 51.02" xml:space="preserve">
<g>
	<g>
		<path fill="#97AAAD" d="M10.33,48.907c-0.057,0.041-0.115,0.074-0.17,0.11c-0.111,0.077-0.225,0.153-0.342,0.221
			c-0.01,0.004-0.016,0.011-0.023,0.015l43.59-24.131c0.363-0.201,0.697-0.449,1.002-0.741l-43.592,24.13
			C10.648,48.655,10.49,48.786,10.33,48.907z"/>
		<path fill="#B1BFC2" d="M11.531,47.62c-0.219,0.33-0.461,0.629-0.736,0.892l43.592-24.13c0.273-0.263,0.516-0.562,0.734-0.892
			L11.531,47.62z"/>
		<path fill="#E6EAEB" d="M12.691,35.081l-0.025,8.17c-0.006,1.799-0.418,3.271-1.135,4.369l43.59-24.131
			c0.717-1.098,1.131-2.57,1.135-4.37l0.025-8.168L12.691,35.081z"/>
		<path fill="#5F7174" d="M10.33,48.907c0.16-0.121,0.318-0.252,0.465-0.396l-0.953-1.576c0.129-0.132,0.248-0.276,0.361-0.433
			c0.006-0.008,0.012-0.016,0.018-0.025c0.115-0.151,0.223-0.318,0.32-0.492c0.504-0.91,0.791-2.074,0.797-3.465l0.023-8.169
			c0.004-1.083-0.803-2.411-1.791-2.955l-3.385-1.862l0.004-1.454l-5.715-3.143L0.408,47.282l2.396,1.318
			c1.166,0.642,2.281,1.033,3.32,1.195c1.406,0.221,2.664,0.02,3.693-0.558c0.117-0.067,0.23-0.144,0.342-0.221
			C10.215,48.981,10.273,48.948,10.33,48.907z"/>
		<path fill="#485557" d="M10.541,45.985c-0.098,0.174-0.205,0.341-0.32,0.492l-0.012,0.018c-0.002,0.004-0.006,0.006-0.006,0.008
			c-0.113,0.156-0.232,0.301-0.361,0.433l0.953,1.576c0.275-0.263,0.518-0.562,0.736-0.892L10.541,45.985z"/>
		<polygon fill="#97AAAD" points="49.78,3.95 44.064,0.807 0.475,24.937 6.189,28.08 		"/>
		<polygon fill="#E6EAEB" points="9.574,29.942 53.165,5.812 49.78,3.95 6.189,28.08 		"/>
		<path fill="#B1BFC2" d="M9.574,29.942L6.189,28.08l-0.004,1.454l3.385,1.862c0.988,0.544,1.795,1.872,1.791,2.955l-0.023,8.169
			c-0.006,1.391-0.293,2.555-0.797,3.465l0.99,1.635c0.717-1.098,1.129-2.57,1.135-4.369l0.025-8.17
			C12.697,33.192,11.301,30.892,9.574,29.942z"/>
		<path fill="#CCD6D6" d="M9.574,29.942c1.727,0.949,3.123,3.25,3.117,5.139l43.59-24.129c0.005-1.89-1.389-4.19-3.116-5.14
			L9.574,29.942z"/>
	</g>
	<g>
		<g enable-background="new    ">
			<defs>
				<polygon id="SVGID_1_" enable-background="new    " points="14.035,44.747 14.033,44.312 18.539,41.835 18.541,42.269 				"/>
			</defs>
			<clipPath id="SVGID_2_">
				<use xlink:href="#SVGID_1_"  overflow="visible"/>
			</clipPath>
			<g clip-path="url(#SVGID_2_)">
				<polygon fill="#B1BFC2" points="18.539,41.835 14.033,44.312 14.035,44.747 18.541,42.269 18.539,41.835 				"/>
			</g>
		</g>
	</g>
	<g>
		<g enable-background="new    ">
			<defs>
				<polygon id="SVGID_3_" enable-background="new    " points="14.035,43.968 14.033,43.532 18.539,41.054 18.541,41.489 				"/>
			</defs>
			<clipPath id="SVGID_4_">
				<use xlink:href="#SVGID_3_"  overflow="visible"/>
			</clipPath>
			<g clip-path="url(#SVGID_4_)">
				<polygon fill="#E94A34" points="18.539,41.054 14.033,43.532 14.035,43.968 18.541,41.489 18.539,41.054 				"/>
			</g>
		</g>
	</g>
	<g>
		<g enable-background="new    ">
			<defs>
				<polygon id="SVGID_5_" enable-background="new    " points="20.242,41.444 20.24,41.009 30.099,35.565 30.1,36 				"/>
			</defs>
			<clipPath id="SVGID_6_">
				<use xlink:href="#SVGID_5_"  overflow="visible"/>
			</clipPath>
			<g clip-path="url(#SVGID_6_)">
				<polygon fill="#B1BFC2" points="30.099,35.565 20.24,41.009 20.242,41.444 30.1,36 30.099,35.565 				"/>
			</g>
		</g>
	</g>
	<g>
		<g enable-background="new    ">
			<defs>
				<polygon id="SVGID_7_" enable-background="new    " points="29.91,34.118 29.906,32.909 42.409,26.033 42.412,27.241 				"/>
			</defs>
			<use xlink:href="#SVGID_7_"  overflow="visible" fill="#5F7174"/>
			<clipPath id="SVGID_8_">
				<use xlink:href="#SVGID_7_"  overflow="visible"/>
			</clipPath>
			<g clip-path="url(#SVGID_8_)">
				<polygon fill="#0E92D0" points="42.409,26.033 29.906,32.909 29.91,34.118 42.412,27.241 42.409,26.033 				"/>
			</g>
		</g>
	</g>
</g>
</svg>
