<?xml version="1.0" encoding="utf-8"?>
<!-- Generator: Adobe Illustrator 16.0.0, SVG Export Plug-In . SVG Version: 6.00 Build 0)  -->
<!DOCTYPE svg PUBLIC "-//W3C//DTD SVG 1.1//EN" "http://www.w3.org/Graphics/SVG/1.1/DTD/svg11.dtd">
<svg version="1.1" id="Layer_1" xmlns="http://www.w3.org/2000/svg" xmlns:xlink="http://www.w3.org/1999/xlink" x="0px" y="0px"
	 width="113.39px" height="127.56px" viewBox="0 0 113.39 127.56" enable-background="new 0 0 113.39 127.56" xml:space="preserve">
<g>
	<defs>
		<polygon id="SVGID_1_" points="105.801,82.5 105.789,5.174 12.344,59.105 12.344,136.416 		"/>
	</defs>
	<clipPath id="SVGID_2_">
		<use xlink:href="#SVGID_1_"  overflow="visible"/>
	</clipPath>
	<g clip-path="url(#SVGID_2_)">
		<path fill="#C3C6C7" d="M98.75,12.208c0.084,0,0.17-0.021,0.25-0.067l4.188-2.417c0.238-0.138,0.32-0.444,0.182-0.683
			c-0.137-0.239-0.443-0.319-0.682-0.183L98.5,11.275c-0.24,0.138-0.322,0.444-0.184,0.683
			C98.408,12.119,98.578,12.208,98.75,12.208z"/>
		
			<linearGradient id="SVGID_3_" gradientUnits="userSpaceOnUse" x1="-38.7085" y1="87.833" x2="-38.7085" y2="2.5524" gradientTransform="matrix(-1 0 0 1 59.2285 0)">
			<stop  offset="0" style="stop-color:#FFFFFF"/>
			<stop  offset="0.2547" style="stop-color:#F5F5F5"/>
			<stop  offset="0.5095" style="stop-color:#F0F0F0"/>
			<stop  offset="1" style="stop-color:#E9E8E8"/>
		</linearGradient>
		<polygon fill="url(#SVGID_3_)" points="95.188,78.766 100.688,81.939 100.688,5.856 95.188,2.681 		"/>
		<path fill="#C3C6C7" d="M92.521,15.804c0.086,0,0.172-0.021,0.25-0.067l5.217-3.012c0.238-0.138,0.32-0.444,0.182-0.683
			c-0.137-0.24-0.443-0.32-0.682-0.183l-5.217,3.012c-0.238,0.138-0.32,0.444-0.182,0.683C92.182,15.715,92.35,15.804,92.521,15.804
			z"/>
		
			<linearGradient id="SVGID_4_" gradientUnits="userSpaceOnUse" x1="-32.396" y1="91.502" x2="-32.396" y2="6.2198" gradientTransform="matrix(-1 0 0 1 59.2285 0)">
			<stop  offset="0" style="stop-color:#FFFFFF"/>
			<stop  offset="0.2547" style="stop-color:#F5F5F5"/>
			<stop  offset="0.5095" style="stop-color:#F0F0F0"/>
			<stop  offset="1" style="stop-color:#E9E8E8"/>
		</linearGradient>
		<polygon fill="url(#SVGID_4_)" points="88.875,82.432 94.375,85.607 94.375,9.523 88.875,6.348 		"/>
		<path fill="#C3C6C7" d="M86.094,19.515c0.086,0,0.172-0.021,0.25-0.067l5.389-3.111c0.238-0.138,0.32-0.444,0.182-0.683
			c-0.137-0.24-0.443-0.32-0.682-0.183l-5.389,3.111c-0.238,0.138-0.32,0.444-0.182,0.683
			C85.754,19.426,85.922,19.515,86.094,19.515z"/>
		
			<linearGradient id="SVGID_5_" gradientUnits="userSpaceOnUse" x1="-26.0835" y1="95.167" x2="-26.0835" y2="9.8859" gradientTransform="matrix(-1 0 0 1 59.2285 0)">
			<stop  offset="0" style="stop-color:#FFFFFF"/>
			<stop  offset="0.2547" style="stop-color:#F5F5F5"/>
			<stop  offset="0.5095" style="stop-color:#F0F0F0"/>
			<stop  offset="1" style="stop-color:#E9E8E8"/>
		</linearGradient>
		<polygon fill="url(#SVGID_5_)" points="82.563,86.098 88.063,89.273 88.063,13.19 82.563,10.015 		"/>
		<path fill="#C3C6C7" d="M79.625,23.25c0.086,0,0.172-0.021,0.25-0.067l5.5-3.175c0.238-0.138,0.32-0.444,0.182-0.683
			c-0.137-0.239-0.443-0.32-0.682-0.183l-5.5,3.175c-0.238,0.138-0.32,0.444-0.182,0.683C79.285,23.161,79.453,23.25,79.625,23.25z"
			/>
		
			<linearGradient id="SVGID_6_" gradientUnits="userSpaceOnUse" x1="-19.771" y1="98.833" x2="-19.771" y2="13.5524" gradientTransform="matrix(-1 0 0 1 59.2285 0)">
			<stop  offset="0" style="stop-color:#FFFFFF"/>
			<stop  offset="0.2547" style="stop-color:#F5F5F5"/>
			<stop  offset="0.5095" style="stop-color:#F0F0F0"/>
			<stop  offset="1" style="stop-color:#E9E8E8"/>
		</linearGradient>
		<polygon fill="url(#SVGID_6_)" points="76.25,89.766 81.75,92.939 81.75,16.856 76.25,13.681 		"/>
		<path fill="#C3C6C7" d="M73.416,26.835c0.084,0,0.17-0.021,0.25-0.067l5.498-3.174c0.24-0.138,0.322-0.444,0.184-0.683
			s-0.445-0.32-0.684-0.183l-5.498,3.174c-0.24,0.138-0.322,0.444-0.184,0.683C73.074,26.745,73.244,26.835,73.416,26.835z"/>
		
			<linearGradient id="SVGID_7_" gradientUnits="userSpaceOnUse" x1="-13.4585" y1="102.502" x2="-13.4585" y2="17.2198" gradientTransform="matrix(-1 0 0 1 59.2285 0)">
			<stop  offset="0" style="stop-color:#FFFFFF"/>
			<stop  offset="0.2547" style="stop-color:#F5F5F5"/>
			<stop  offset="0.5095" style="stop-color:#F0F0F0"/>
			<stop  offset="1" style="stop-color:#E9E8E8"/>
		</linearGradient>
		<polygon fill="url(#SVGID_7_)" points="69.938,93.432 75.438,96.607 75.438,20.523 69.938,17.348 		"/>
		<path fill="#C3C6C7" d="M67.244,30.398c0.086,0,0.172-0.021,0.25-0.067l5.346-3.086c0.24-0.138,0.322-0.444,0.184-0.683
			s-0.443-0.319-0.684-0.183l-5.346,3.086c-0.238,0.138-0.32,0.444-0.182,0.683C66.904,30.309,67.072,30.398,67.244,30.398z"/>
		
			<linearGradient id="SVGID_8_" gradientUnits="userSpaceOnUse" x1="-7.146" y1="106.167" x2="-7.146" y2="20.8859" gradientTransform="matrix(-1 0 0 1 59.2285 0)">
			<stop  offset="0" style="stop-color:#FFFFFF"/>
			<stop  offset="0.2547" style="stop-color:#F5F5F5"/>
			<stop  offset="0.5095" style="stop-color:#F0F0F0"/>
			<stop  offset="1" style="stop-color:#E9E8E8"/>
		</linearGradient>
		<polygon fill="url(#SVGID_8_)" points="63.625,97.098 69.125,100.273 69.125,24.19 63.625,21.015 		"/>
		<path fill="#C3C6C7" d="M59.049,35.13c0.086,0,0.172-0.021,0.25-0.067l7.365-4.252c0.238-0.138,0.32-0.444,0.182-0.683
			c-0.137-0.24-0.443-0.319-0.682-0.183l-7.365,4.252c-0.238,0.138-0.32,0.444-0.182,0.683C58.709,35.041,58.877,35.13,59.049,35.13
			z"/>
		<g>
			
				<linearGradient id="SVGID_9_" gradientUnits="userSpaceOnUse" x1="-5.126" y1="64.3105" x2="-0.54" y2="64.3105" gradientTransform="matrix(-1 0 0 1 59.2285 0)">
				<stop  offset="0" style="stop-color:#FFFFFF"/>
				<stop  offset="0.0597" style="stop-color:#FCFBFB"/>
				<stop  offset="0.2614" style="stop-color:#F3F3F3"/>
				<stop  offset="0.5095" style="stop-color:#F0F0F0"/>
				<stop  offset="0.513" style="stop-color:#F0F0F0"/>
				<stop  offset="0.6419" style="stop-color:#EAEAEA"/>
				<stop  offset="1" style="stop-color:#E9E8E8"/>
			</linearGradient>
			<polygon fill="url(#SVGID_9_)" points="57.312,100.766 62.813,103.939 62.813,27.856 57.312,24.681 			"/>
			
				<linearGradient id="SVGID_10_" gradientUnits="userSpaceOnUse" x1="-3.626" y1="65.1445" x2="0.96" y2="65.1445" gradientTransform="matrix(-1 0 0 1 59.2285 0)">
				<stop  offset="0" style="stop-color:#FFFFFF"/>
				<stop  offset="0.0597" style="stop-color:#FCFBFB"/>
				<stop  offset="0.2614" style="stop-color:#F3F3F3"/>
				<stop  offset="0.5095" style="stop-color:#F0F0F0"/>
				<stop  offset="0.513" style="stop-color:#F0F0F0"/>
				<stop  offset="0.6419" style="stop-color:#EAEAEA"/>
				<stop  offset="1" style="stop-color:#E9E8E8"/>
			</linearGradient>
			<polygon fill="url(#SVGID_10_)" points="55.812,101.598 61.313,104.773 61.313,28.69 55.812,25.515 			"/>
			
				<linearGradient id="SVGID_11_" gradientUnits="userSpaceOnUse" x1="-2.126" y1="65.9775" x2="2.46" y2="65.9775" gradientTransform="matrix(-1 0 0 1 59.2285 0)">
				<stop  offset="0" style="stop-color:#FFFFFF"/>
				<stop  offset="0.0597" style="stop-color:#FCFBFB"/>
				<stop  offset="0.2614" style="stop-color:#F3F3F3"/>
				<stop  offset="0.5095" style="stop-color:#F0F0F0"/>
				<stop  offset="0.513" style="stop-color:#F0F0F0"/>
				<stop  offset="0.6419" style="stop-color:#EAEAEA"/>
				<stop  offset="1" style="stop-color:#E9E8E8"/>
			</linearGradient>
			<polygon fill="url(#SVGID_11_)" points="54.312,102.432 59.813,105.607 59.813,29.523 54.312,26.348 			"/>
			
				<linearGradient id="SVGID_12_" gradientUnits="userSpaceOnUse" x1="-0.626" y1="66.8105" x2="3.96" y2="66.8105" gradientTransform="matrix(-1 0 0 1 59.2285 0)">
				<stop  offset="0" style="stop-color:#FFFFFF"/>
				<stop  offset="0.0597" style="stop-color:#FCFBFB"/>
				<stop  offset="0.2614" style="stop-color:#F3F3F3"/>
				<stop  offset="0.5095" style="stop-color:#F0F0F0"/>
				<stop  offset="0.513" style="stop-color:#F0F0F0"/>
				<stop  offset="0.6419" style="stop-color:#EAEAEA"/>
				<stop  offset="1" style="stop-color:#E9E8E8"/>
			</linearGradient>
			<polygon fill="url(#SVGID_12_)" points="52.812,103.266 58.313,106.439 58.313,30.356 52.812,27.181 			"/>
			
				<linearGradient id="SVGID_13_" gradientUnits="userSpaceOnUse" x1="0.875" y1="67.6445" x2="5.4606" y2="67.6445" gradientTransform="matrix(-1 0 0 1 59.2285 0)">
				<stop  offset="0" style="stop-color:#FFFFFF"/>
				<stop  offset="0.0597" style="stop-color:#FCFBFB"/>
				<stop  offset="0.2614" style="stop-color:#F3F3F3"/>
				<stop  offset="0.5095" style="stop-color:#F0F0F0"/>
				<stop  offset="0.513" style="stop-color:#F0F0F0"/>
				<stop  offset="0.6419" style="stop-color:#EAEAEA"/>
				<stop  offset="1" style="stop-color:#E9E8E8"/>
			</linearGradient>
			<polygon fill="url(#SVGID_13_)" points="51.312,104.098 56.812,107.273 56.812,31.19 51.312,28.015 			"/>
			
				<linearGradient id="SVGID_14_" gradientUnits="userSpaceOnUse" x1="2.375" y1="68.4775" x2="6.9606" y2="68.4775" gradientTransform="matrix(-1 0 0 1 59.2285 0)">
				<stop  offset="0" style="stop-color:#FFFFFF"/>
				<stop  offset="0.0597" style="stop-color:#FCFBFB"/>
				<stop  offset="0.2614" style="stop-color:#F3F3F3"/>
				<stop  offset="0.5095" style="stop-color:#F0F0F0"/>
				<stop  offset="0.513" style="stop-color:#F0F0F0"/>
				<stop  offset="0.6419" style="stop-color:#EAEAEA"/>
				<stop  offset="1" style="stop-color:#E9E8E8"/>
			</linearGradient>
			<polygon fill="url(#SVGID_14_)" points="49.812,104.932 55.312,108.107 55.312,32.023 49.812,28.848 			"/>
			
				<linearGradient id="SVGID_15_" gradientUnits="userSpaceOnUse" x1="3.875" y1="69.3105" x2="8.4606" y2="69.3105" gradientTransform="matrix(-1 0 0 1 59.2285 0)">
				<stop  offset="0" style="stop-color:#FFFFFF"/>
				<stop  offset="0.0597" style="stop-color:#FCFBFB"/>
				<stop  offset="0.2614" style="stop-color:#F3F3F3"/>
				<stop  offset="0.5095" style="stop-color:#F0F0F0"/>
				<stop  offset="0.513" style="stop-color:#F0F0F0"/>
				<stop  offset="0.6419" style="stop-color:#EAEAEA"/>
				<stop  offset="1" style="stop-color:#E9E8E8"/>
			</linearGradient>
			<polygon fill="url(#SVGID_15_)" points="48.312,105.766 53.812,108.939 53.812,32.856 48.312,29.681 			"/>
			
				<linearGradient id="SVGID_16_" gradientUnits="userSpaceOnUse" x1="5.375" y1="70.1445" x2="9.9606" y2="70.1445" gradientTransform="matrix(-1 0 0 1 59.2285 0)">
				<stop  offset="0" style="stop-color:#FFFFFF"/>
				<stop  offset="0.0597" style="stop-color:#FCFBFB"/>
				<stop  offset="0.2614" style="stop-color:#F3F3F3"/>
				<stop  offset="0.5095" style="stop-color:#F0F0F0"/>
				<stop  offset="0.513" style="stop-color:#F0F0F0"/>
				<stop  offset="0.6419" style="stop-color:#EAEAEA"/>
				<stop  offset="1" style="stop-color:#E9E8E8"/>
			</linearGradient>
			<polygon fill="url(#SVGID_16_)" points="46.812,106.598 52.312,109.773 52.312,33.69 46.812,30.515 			"/>
			
				<linearGradient id="SVGID_17_" gradientUnits="userSpaceOnUse" x1="6.875" y1="70.9775" x2="11.4606" y2="70.9775" gradientTransform="matrix(-1 0 0 1 59.2285 0)">
				<stop  offset="0" style="stop-color:#FFFFFF"/>
				<stop  offset="0.0597" style="stop-color:#FCFBFB"/>
				<stop  offset="0.2614" style="stop-color:#F3F3F3"/>
				<stop  offset="0.5095" style="stop-color:#F0F0F0"/>
				<stop  offset="0.513" style="stop-color:#F0F0F0"/>
				<stop  offset="0.6419" style="stop-color:#EAEAEA"/>
				<stop  offset="1" style="stop-color:#E9E8E8"/>
			</linearGradient>
			<polygon fill="url(#SVGID_17_)" points="45.312,107.432 50.812,110.607 50.812,34.523 45.312,31.348 			"/>
			
				<linearGradient id="SVGID_18_" gradientUnits="userSpaceOnUse" x1="8.375" y1="71.8105" x2="12.9606" y2="71.8105" gradientTransform="matrix(-1 0 0 1 59.2285 0)">
				<stop  offset="0" style="stop-color:#FFFFFF"/>
				<stop  offset="0.0597" style="stop-color:#FCFBFB"/>
				<stop  offset="0.2614" style="stop-color:#F3F3F3"/>
				<stop  offset="0.5095" style="stop-color:#F0F0F0"/>
				<stop  offset="0.513" style="stop-color:#F0F0F0"/>
				<stop  offset="0.6419" style="stop-color:#EAEAEA"/>
				<stop  offset="1" style="stop-color:#E9E8E8"/>
			</linearGradient>
			<polygon fill="url(#SVGID_18_)" points="43.812,108.266 49.312,111.439 49.312,35.356 43.812,32.181 			"/>
			
				<linearGradient id="SVGID_19_" gradientUnits="userSpaceOnUse" x1="9.875" y1="72.6445" x2="14.4606" y2="72.6445" gradientTransform="matrix(-1 0 0 1 59.2285 0)">
				<stop  offset="0" style="stop-color:#FFFFFF"/>
				<stop  offset="0.0597" style="stop-color:#FCFBFB"/>
				<stop  offset="0.2614" style="stop-color:#F3F3F3"/>
				<stop  offset="0.5095" style="stop-color:#F0F0F0"/>
				<stop  offset="0.513" style="stop-color:#F0F0F0"/>
				<stop  offset="0.6419" style="stop-color:#EAEAEA"/>
				<stop  offset="1" style="stop-color:#E9E8E8"/>
			</linearGradient>
			<polygon fill="url(#SVGID_19_)" points="42.312,109.098 47.812,112.273 47.812,36.19 42.312,33.015 			"/>
			
				<linearGradient id="SVGID_20_" gradientUnits="userSpaceOnUse" x1="15.6665" y1="119.002" x2="15.6665" y2="33.7198" gradientTransform="matrix(-1 0 0 1 59.2285 0)">
				<stop  offset="0" style="stop-color:#FFFFFF"/>
				<stop  offset="0.4999" style="stop-color:#F5F5F5"/>
				<stop  offset="1" style="stop-color:#F0F0F0"/>
			</linearGradient>
			<polygon fill="url(#SVGID_20_)" points="40.812,109.932 46.312,113.107 46.312,37.023 40.812,33.848 			"/>
		</g>
	</g>
	<path clip-path="url(#SVGID_2_)" fill="#C3C6C7" d="M-13.227,77.557c0.058,0,0.117-0.015,0.17-0.048l57.06-33.847
		c0.163-0.097,0.219-0.312,0.125-0.479c-0.094-0.168-0.303-0.225-0.466-0.128L-13.398,76.9c-0.163,0.099-0.219,0.312-0.125,0.48
		C-13.46,77.494-13.344,77.557-13.227,77.557z"/>
</g>
</svg>
