<?xml version="1.0" encoding="utf-8"?>
<!-- Generator: Adobe Illustrator 16.0.0, SVG Export Plug-In . SVG Version: 6.00 Build 0)  -->
<!DOCTYPE svg PUBLIC "-//W3C//DTD SVG 1.1//EN" "http://www.w3.org/Graphics/SVG/1.1/DTD/svg11.dtd">
<svg version="1.1" id="Layer_1" xmlns="http://www.w3.org/2000/svg" xmlns:xlink="http://www.w3.org/1999/xlink" x="0px" y="0px"
	 width="22.68px" height="56.69px" viewBox="0 0 22.68 56.69" enable-background="new 0 0 22.68 56.69" xml:space="preserve">
<g>
	<g>
		<g>
			<g enable-background="new    ">
				<path fill="#50585B" d="M16.551,47.68L16.551,47.68c-2.193-1.266-5.202-1.338-7.211-0.849c-1.774,0.433-2.676,1.129-2.911,1.332
					c-0.387,0.335-0.681,0.61-0.952,1.098c-0.273,0.493-0.297,0.835-0.322,1.197c-0.003,0.998,0.657,1.999,1.978,2.762
					c2.625,1.516,6.871,1.52,9.478,0.004c1.295-0.753,1.943-1.739,1.946-2.728C18.558,48.935,17.1,48.023,16.551,47.68z"/>
				<path fill="#3C4243" d="M18.455,51.109c-0.023,0.084-0.053,0.166-0.085,0.249c-0.058,0.147-0.134,0.292-0.222,0.435
					c-0.047,0.077-0.091,0.154-0.146,0.229c-0.119,0.161-0.266,0.316-0.426,0.469c-0.051,0.05-0.092,0.103-0.146,0.15
					c-0.237,0.205-0.508,0.401-0.818,0.582c-0.291,0.169-0.608,0.313-0.936,0.443c-0.085,0.034-0.172,0.066-0.26,0.099
					c-0.242,0.088-0.496,0.161-0.754,0.229c-0.127,0.034-0.251,0.071-0.381,0.101c-0.305,0.067-0.615,0.118-0.931,0.159
					c-0.075,0.01-0.147,0.026-0.223,0.034c-0.392,0.043-0.79,0.063-1.187,0.065c-0.111,0.001-0.222-0.009-0.333-0.012
					c-0.289-0.007-0.577-0.02-0.862-0.048c-0.134-0.014-0.267-0.034-0.399-0.052c-0.258-0.035-0.513-0.079-0.764-0.132
					c-0.135-0.028-0.27-0.059-0.402-0.092c-0.254-0.065-0.5-0.143-0.742-0.227c-0.111-0.038-0.225-0.072-0.333-0.115
					c-0.34-0.135-0.668-0.284-0.971-0.458c-1.321-0.763-1.98-1.764-1.978-2.762l0,0.153v0.013l0.021,0.302
					c0.013,0.093,0.043,0.215,0.062,0.307l0.021,0.061c0.005,0.019,0.012,0.037,0.017,0.055c0.002,0.008,0.004,0.015,0.006,0.022
					c-0.001-0.004-0.001-0.007-0.002-0.01c0.001,0.003,0.003,0.005,0.004,0.008l0.005,0.016c-0.002-0.005-0.006-0.009-0.007-0.014
					c0.005,0.016,0.014,0.033,0.019,0.049l0.037,0.11c0.037,0.092,0.1,0.209,0.142,0.299l0.009,0.014
					c0.012,0.022,0.029,0.046,0.042,0.068l0.012,0.021c0.017,0.026,0.033,0.053,0.05,0.079l0.065,0.104l0.008,0.012l0.219,0.279
					c0.001,0.001,0.002,0.002,0.003,0.003c0,0,0,0.001,0,0.001c0.001,0.001,0.003,0.002,0.004,0.003
					c0.031,0.035,0.068,0.071,0.105,0.109c0.022,0.024,0.044,0.048,0.068,0.071c0.029,0.029,0.058,0.061,0.083,0.086l0.297,0.26
					c0.014,0.011,0.032,0.022,0.046,0.034c0.005,0.004,0.011,0.008,0.016,0.012c0.024,0.019,0.049,0.036,0.075,0.055
					c0.036,0.027,0.071,0.054,0.108,0.08c0.033,0.023,0.067,0.049,0.096,0.07l0.375,0.234c0.033,0.019,0.073,0.039,0.11,0.06
					c0.059,0.033,0.119,0.064,0.179,0.096c0.041,0.021,0.083,0.043,0.119,0.062l0.426,0.193c0.007,0.003,0.018,0.007,0.025,0.01
					c0.105,0.044,0.212,0.083,0.32,0.123c0.034,0.013,0.071,0.026,0.102,0.038l0.254,0.081c0.168,0.053,0.336,0.103,0.507,0.146
					c0.061,0.016,0.123,0.031,0.175,0.045l0.486,0.102c0.148,0.027,0.347,0.056,0.496,0.079l0.501,0.057
					c0.152,0.014,0.354,0.023,0.506,0.034l0.508,0.011c0.068,0,0.149-0.001,0.229-0.004c0.026,0,0.055-0.001,0.081-0.002
					c0.069-0.001,0.138-0.004,0.197-0.005l0.506-0.033c0.151-0.014,0.351-0.039,0.501-0.056l0.494-0.079
					c0.146-0.026,0.341-0.071,0.486-0.102l0.474-0.124c0.092-0.026,0.199-0.062,0.304-0.096c0.027-0.009,0.053-0.017,0.08-0.026
					c0.025-0.008,0.055-0.018,0.078-0.025l0.443-0.169c0.074-0.031,0.16-0.072,0.245-0.112c0.039-0.017,0.077-0.034,0.115-0.052
					c0.022-0.011,0.047-0.021,0.067-0.03l0.402-0.216c0.018-0.012,0.039-0.027,0.059-0.039c0.184-0.107,0.352-0.226,0.514-0.35
					c0.043-0.03,0.092-0.063,0.13-0.091l0.084-0.074c0.069-0.06,0.14-0.116,0.204-0.179l0.008-0.007
					c0-0.001,0.002-0.002,0.002-0.003c0,0,0.002-0.001,0.002-0.002c0.011-0.01,0.018-0.019,0.027-0.028
					c0.076-0.076,0.16-0.169,0.229-0.241l0.063-0.08c0.18-0.216,0.283-0.379,0.334-0.485c0.026-0.056,0.045-0.098,0.067-0.146
					c0.001-0.004,0.003-0.008,0.005-0.012c0.012-0.023,0.023-0.05,0.033-0.072c0.011-0.02,0.023-0.044,0.033-0.063l0.039-0.115
					c0.006-0.017,0.013-0.034,0.019-0.052c0.001-0.001,0.001-0.003,0.001-0.005c0.002-0.003,0.004-0.007,0.004-0.01
					c0.01-0.03,0.021-0.063,0.03-0.095l0.007-0.021c0.012-0.04,0.019-0.088,0.027-0.135c0.002-0.01,0.008-0.02,0.01-0.029
					c0.004-0.015,0.002-0.028,0.005-0.042c0.006-0.035,0.014-0.07,0.021-0.101c0.006-0.091,0.014-0.212,0.02-0.303l0.001-0.153
					C18.557,50.701,18.512,50.906,18.455,51.109z"/>
			</g>
		</g>
		<g>
			<path opacity="0.5" fill="#50585B" d="M16.686,48.604c-1.975,0.087-6.31,1.892-8.31,3.378c-0.296,0.202-0.81,0.741-0.527,1.147
				c1.355,1.952,9.924,1.642,10.623-2.137C18.67,49.922,18.151,48.505,16.686,48.604z"/>
			<path fill="#5A6366" d="M10.187,54.023c0.351,0.286,2.951,0.574,5.231-0.277c2.451-0.915,2.925-2.302,2.9-2.76
				C16.799,53.008,13.844,53.875,10.187,54.023z"/>
			<path fill="#8D9496" d="M12.34,54.194c1.674-0.229,2.146-0.321,3.797-0.852c-0.893,0.479-2.076,0.959-4.084,0.894
				C12.139,54.224,12.254,54.206,12.34,54.194L12.34,54.194z"/>
			<path fill="#BECBCE" d="M12.955,54.183c0.576-0.095,1.449-0.236,2.309-0.48c-0.554,0.199-1.242,0.448-2.381,0.492
				C12.904,54.19,12.934,54.186,12.955,54.183L12.955,54.183z"/>
		</g>
	</g>
	<g>
		<path fill="#646E71" d="M11.868,22.366c-0.625,0-1.133,0.507-1.133,1.132v26.331c0,0.967,2.265,0.932,2.265,0V23.498
			C13,22.873,12.494,22.366,11.868,22.366z"/>
		<path opacity="0.5" fill="#50585B" d="M11.363,22.498c-0.368,0.188-0.627,0.56-0.627,1v26.331c0,0.332,0.277,0.53,0.627,0.628
			V22.498z"/>
		<path opacity="0.3" fill="#BECBCE" d="M12.625,22.702c-0.125-0.12-0.268-0.221-0.441-0.272v28.073
			c0.169-0.028,0.313-0.088,0.441-0.161V22.702z"/>
	</g>
	<g>
		<g>
			<g enable-background="new    ">
				<polygon fill="#1C1A1A" points="11.101,9.67 4.795,6.005 4.877,31.784 11.183,35.448 				"/>
				<polygon fill="#5D5757" points="11.992,1.851 4.795,6.005 11.101,9.67 18.297,5.515 				"/>
				<polygon fill="#3F393A" points="18.297,5.515 11.101,9.67 11.183,35.448 18.38,31.293 				"/>
			</g>
		</g>
		<g>
			<linearGradient id="SVGID_1_" gradientUnits="userSpaceOnUse" x1="12.9473" y1="27.3179" x2="16.2084" y2="29.4218">
				<stop  offset="0" style="stop-color:#B4B4B4"/>
				<stop  offset="1" style="stop-color:#DEDEDE"/>
			</linearGradient>
			<path fill="url(#SVGID_1_)" d="M14.718,25.497c-1.429,0.824-2.579,2.819-2.575,4.46c0.005,1.634,1.164,2.295,2.592,1.471
				c1.422-0.821,2.574-2.816,2.569-4.45C17.299,25.337,16.14,24.676,14.718,25.497z"/>
			<path fill="#F4F4F4" d="M16.522,25.307c0.335,0.308,0.542,0.808,0.544,1.486c0.005,1.635-1.146,3.629-2.568,4.45
				c-0.707,0.407-1.346,0.45-1.813,0.193c0.474,0.436,1.211,0.475,2.049-0.009c1.422-0.821,2.574-2.816,2.569-4.45
				C17.301,26.146,17.002,25.57,16.522,25.307z"/>
			<path fill="#272424" d="M14.432,27.094c-0.545,0.315-0.984,1.077-0.983,1.703c0.002,0.624,0.444,0.877,0.989,0.562
				c0.544-0.313,0.983-1.075,0.982-1.699C15.418,27.032,14.975,26.78,14.432,27.094z"/>
			<path opacity="0.2" fill="#F4F4F4" d="M14.438,29.358c0.544-0.313,0.983-1.075,0.982-1.699c-0.001-0.084-0.01-0.16-0.025-0.23
				c-0.152-0.192-0.42-0.225-0.727-0.048c-0.473,0.273-0.855,0.935-0.854,1.479c0.001,0.345,0.157,0.558,0.393,0.598
				C14.281,29.436,14.357,29.405,14.438,29.358z"/>
		</g>
		<g>
			<linearGradient id="SVGID_2_" gradientUnits="userSpaceOnUse" x1="12.9463" y1="19.1797" x2="16.2074" y2="21.2836">
				<stop  offset="0" style="stop-color:#B4B4B4"/>
				<stop  offset="1" style="stop-color:#DEDEDE"/>
			</linearGradient>
			<path fill="url(#SVGID_2_)" d="M14.718,17.359c-1.429,0.824-2.579,2.819-2.575,4.46c0.005,1.634,1.164,2.295,2.592,1.47
				c1.422-0.82,2.574-2.815,2.569-4.449C17.299,17.199,16.14,16.538,14.718,17.359z"/>
			<path fill="#F4F4F4" d="M16.522,17.169c0.335,0.308,0.542,0.807,0.544,1.486c0.005,1.635-1.146,3.629-2.568,4.45
				c-0.707,0.407-1.346,0.449-1.813,0.193c0.474,0.435,1.211,0.475,2.049-0.01c1.422-0.82,2.574-2.815,2.569-4.449
				C17.301,18.009,17.002,17.432,16.522,17.169z"/>
			<path fill="#272424" d="M14.432,18.956c-0.545,0.314-0.984,1.076-0.983,1.703c0.002,0.624,0.444,0.877,0.989,0.562
				c0.544-0.313,0.983-1.075,0.982-1.699C15.418,18.895,14.975,18.643,14.432,18.956z"/>
			<path opacity="0.2" fill="#F4F4F4" d="M14.438,21.221c0.544-0.313,0.983-1.075,0.982-1.699c-0.001-0.084-0.01-0.16-0.025-0.23
				c-0.152-0.192-0.42-0.226-0.727-0.048c-0.473,0.273-0.855,0.935-0.854,1.479c0.001,0.345,0.157,0.558,0.393,0.598
				C14.281,21.298,14.357,21.268,14.438,21.221z"/>
		</g>
		<g>
			<linearGradient id="SVGID_3_" gradientUnits="userSpaceOnUse" x1="12.9463" y1="11.042" x2="16.2081" y2="13.1464">
				<stop  offset="0" style="stop-color:#B4B4B4"/>
				<stop  offset="1" style="stop-color:#DEDEDE"/>
			</linearGradient>
			<path fill="url(#SVGID_3_)" d="M14.718,9.222c-1.429,0.824-2.579,2.819-2.575,4.46c0.005,1.634,1.164,2.294,2.592,1.47
				c1.422-0.821,2.574-2.815,2.569-4.45C17.299,9.061,16.14,8.4,14.718,9.222z"/>
			<path fill="#F4F4F4" d="M16.522,9.031c0.335,0.308,0.542,0.807,0.544,1.486c0.005,1.634-1.146,3.629-2.568,4.45
				c-0.707,0.408-1.346,0.45-1.813,0.193c0.474,0.436,1.211,0.475,2.049-0.009c1.422-0.821,2.574-2.815,2.569-4.45
				C17.301,9.871,17.002,9.294,16.522,9.031z"/>
			<path fill="#272424" d="M14.432,10.818c-0.545,0.315-0.984,1.077-0.983,1.703c0.002,0.624,0.444,0.876,0.989,0.562
				c0.544-0.313,0.983-1.075,0.982-1.699C15.418,10.757,14.975,10.504,14.432,10.818z"/>
			<path opacity="0.2" fill="#F4F4F4" d="M14.438,13.083c0.544-0.313,0.983-1.075,0.982-1.7c-0.001-0.084-0.01-0.16-0.025-0.23
				c-0.152-0.192-0.42-0.225-0.727-0.048c-0.473,0.273-0.855,0.935-0.854,1.48c0.001,0.345,0.157,0.557,0.393,0.597
				C14.281,13.16,14.357,13.129,14.438,13.083z"/>
		</g>
	</g>
</g>
</svg>
